<?xml version="1.0" encoding="utf-8"?>
<svg version="1.1" xmlns:xlink="http://www.w3.org/1999/xlink" width="374px" height="67px" xmlns="http://www.w3.org/2000/svg">
  <defs>
    <mask fill="white" id="clip15">
      <path d="M 49.464824120603 33.1578947368421  C 49.464824120603 14.5894736842105  118.540201005025 0  210.243718592965 0  C 301.947236180905 0  374 14.5894736842105  374 33.1578947368421  C 374 51.7263157894737  301.947236180905 66.3157894736842  210.243718592965 66.3157894736842  C 155.230659401419 66.3157894736842  33.5559219740675 69.2102224942233  4 61  C -15.7120527651595 55.5242669417713  49.464824120603 40.5870959064154  49.464824120603 33.1578947368421  Z " fill-rule="evenodd" />
    </mask>
  </defs>
  <g transform="matrix(1 0 0 1 -127 -85 )">
    <path d="M 49.464824120603 33.1578947368421  C 49.464824120603 14.5894736842105  118.540201005025 0  210.243718592965 0  C 301.947236180905 0  374 14.5894736842105  374 33.1578947368421  C 374 51.7263157894737  301.947236180905 66.3157894736842  210.243718592965 66.3157894736842  C 155.230659401419 66.3157894736842  33.5559219740675 69.2102224942233  4 61  C -15.7120527651595 55.5242669417713  49.464824120603 40.5870959064154  49.464824120603 33.1578947368421  Z " fill-rule="nonzero" fill="#ffffff" stroke="none" fill-opacity="0.996078431372549" transform="matrix(1 0 0 1 127 85 )" />
    <path d="M 49.464824120603 33.1578947368421  C 49.464824120603 14.5894736842105  118.540201005025 0  210.243718592965 0  C 301.947236180905 0  374 14.5894736842105  374 33.1578947368421  C 374 51.7263157894737  301.947236180905 66.3157894736842  210.243718592965 66.3157894736842  C 155.230659401419 66.3157894736842  33.5559219740675 69.2102224942233  4 61  C -15.7120527651595 55.5242669417713  49.464824120603 40.5870959064154  49.464824120603 33.1578947368421  Z " stroke-width="2" stroke="#797979" fill="none" transform="matrix(1 0 0 1 127 85 )" mask="url(#clip15)" />
  </g>
</svg>