<?xml version="1.0" encoding="utf-8"?>
<svg version="1.1" xmlns:xlink="http://www.w3.org/1999/xlink" width="369px" height="67px" xmlns="http://www.w3.org/2000/svg">
  <defs>
    <mask fill="white" id="clip16">
      <path d="M 0 33.5  C 0 14.74  81.18 0  184.5 0  C 261.767199335126 0  294.190551204999 21.4963220581931  322 33.5  C 331.376734659604 37.5473762651453  369 28.7695456787356  369 33.5  C 369 36.0631364004365  367.484601630903 38.5512309008511  364.604383404862 40.9369426873842  C 360.454357330507 44.3744482314061  353.47081182862 47.5993957536854  344.104189331471 50.5299976039185  C 312.392102233427 60.4519840139148  253.363726623224 67  184.5 67  C 81.18 67  0 52.26  0 33.5  Z " fill-rule="evenodd" />
    </mask>
  </defs>
  <g transform="matrix(1 0 0 1 -386 -138 )">
    <path d="M 0 33.5  C 0 14.74  81.18 0  184.5 0  C 261.767199335126 0  294.190551204999 21.4963220581931  322 33.5  C 331.376734659604 37.5473762651453  369 28.7695456787356  369 33.5  C 369 36.0631364004365  367.484601630903 38.5512309008511  364.604383404862 40.9369426873842  C 360.454357330507 44.3744482314061  353.47081182862 47.5993957536854  344.104189331471 50.5299976039185  C 312.392102233427 60.4519840139148  253.363726623224 67  184.5 67  C 81.18 67  0 52.26  0 33.5  Z " fill-rule="nonzero" fill="#81d3f8" stroke="none" fill-opacity="0.968627450980392" transform="matrix(1 0 0 1 386 138 )" />
    <path d="M 0 33.5  C 0 14.74  81.18 0  184.5 0  C 261.767199335126 0  294.190551204999 21.4963220581931  322 33.5  C 331.376734659604 37.5473762651453  369 28.7695456787356  369 33.5  C 369 36.0631364004365  367.484601630903 38.5512309008511  364.604383404862 40.9369426873842  C 360.454357330507 44.3744482314061  353.47081182862 47.5993957536854  344.104189331471 50.5299976039185  C 312.392102233427 60.4519840139148  253.363726623224 67  184.5 67  C 81.18 67  0 52.26  0 33.5  Z " stroke-width="2" stroke="#797979" fill="none" transform="matrix(1 0 0 1 386 138 )" mask="url(#clip16)" />
  </g>
</svg>