<?xml version="1.0" encoding="utf-8"?>
<svg version="1.1" xmlns:xlink="http://www.w3.org/1999/xlink" width="220px" height="59px" xmlns="http://www.w3.org/2000/svg">
  <defs>
    <linearGradient gradientUnits="userSpaceOnUse" x1="503" y1="479" x2="503" y2="538" id="LinearGradient11">
      <stop id="Stop12" stop-color="#c280ff" offset="0" />
      <stop id="Stop13" stop-color="#000000" offset="1" />
    </linearGradient>
  </defs>
  <g transform="matrix(1 0 0 1 -393 -479 )">
    <path d="M 396.5 504  A 21.5 21.5 0 0 1 418 482.5 L 588 482.5  A 21.5 21.5 0 0 1 609.5 504 L 609.5 513  A 21.5 21.5 0 0 1 588 534.5 L 418 534.5  A 21.5 21.5 0 0 1 396.5 513 L 396.5 504  Z " fill-rule="nonzero" fill="#c280ff" stroke="none" />
    <path d="M 395 504  A 23 23 0 0 1 418 481 L 588 481  A 23 23 0 0 1 611 504 L 611 513  A 23 23 0 0 1 588 536 L 418 536  A 23 23 0 0 1 395 513 L 395 504  Z " stroke-width="4" stroke="url(#LinearGradient11)" fill="none" />
  </g>
</svg>